{"title":"Melancholian 3 huonetta / The 3 Rooms of Melancholia, 2004","uid":8293465,"size":1349240761,"categoryP":"video","categoryS":"movies","magnet":"?xt=urn:btih:f9282bd6714801cc4c349db4269fdbe2d89de7b7&amp;dn=Melancholian+3+huonetta+%2F+The+3+Rooms+of+Melancholia%2C+2004&amp;tr=udp%3A%2F%2Ftracker.openbittorrent.com%3A80&amp;tr=udp%3A%2F%2Fopen.demonii.com%3A1337&amp;tr=udp%3A%2F%2Ftracker.coppersurfer.tk%3A6969&amp;tr=udp%3A%2F%2Fexodus.desync.com%3A6969","seeders":1,"leechers":0,"uploader":"moonflux","files":2,"time":1364109509,"description":"A searing examination of the unrelenting Chechen conflict, observed through the prisms of a Russian military boys academy, a war-torn town and a children's refugee camp. \nNarrated by Pirkko Saisio, directed by Pirjo Honkasalo.\n\nGeneral\nComplete name                            : Melancholian 3 Huonetta (The 3 Rooms of Melancholia) - 2004.avi\nFormat                                   : AVI\nFormat/Info                              : Audio Video Interleave\nFile size                                : 1.26 GiB\nDuration                                 : 1h 45mn\nOverall bit rate                         : 1 703 Kbps\n\nVideo\nID                                       : 0\nFormat                                   : MPEG-4 Visual\nFormat profile                           : Simple@L3\nFormat settings, BVOP                    : No\nFormat settings, QPel                    : No\nFormat settings, GMC                     : No warppoints\nFormat settings, Matrix                  : Default (H.263)\nCodec ID                                 : XVID\nCodec ID/Hint                            : XviD\nDuration                                 : 1h 45mn\nSource duration                          : 1h 45mn\nBit rate                                 : 1 500 Kbps\nWidth                                    : 704 pixels\nHeight                                   : 384 pixels\nDisplay aspect ratio                     : 1.85:1\nFrame rate                               : 25.000 fps\nColor space                              : YUV\nChroma subsampling                       : 4:2:0\nBit depth                                : 8 bits\nScan type                                : Progressive\nCompression mode                         : Lossy\nBits/(Pixel*Frame)                       : 0.222\nStream size                              : 1.11 GiB (88%)\nWriting library                          : XviD 1.1.2 (UTC 2006-11-01)\n\nAudio\nID                                       : 1\nFormat                                   : AC-3\nFormat/Info                              : Audio Coding 3\nMode extension                           : CM (complete main)\nFormat settings, Endianness              : Big\nCodec ID                                 : 2000\nDuration                                 : 1h 45mn\nBit rate mode                            : Constant\nBit rate                                 : 192 Kbps\nChannel(s)                               : 2 channels\nChannel positions                        : Front: L R\nSampling rate                            : 48.0 KHz\nBit depth                                : 16 bits\nCompression mode                         : Lossy\nStream size                              : 145 MiB (11%)\nAlignment                                : Aligned on interleaves\nInterleave, duration                     : 32 ms (0.80 video frame)\nInterleave, preload duration             : 512 ms\n\n","torrent":{"xt":"urn:btih:f9282bd6714801cc4c349db4269fdbe2d89de7b7","amp;dn":"Melancholian+3+huonetta+%2F+The+3+Rooms+of+Melancholia%2C+2004","amp;tr":["udp%3A%2F%2Ftracker.openbittorrent.com%3A80","udp%3A%2F%2Fopen.demonii.com%3A1337","udp%3A%2F%2Ftracker.coppersurfer.tk%3A6969","udp%3A%2F%2Fexodus.desync.com%3A6969"],"infoHash":"f9282bd6714801cc4c349db4269fdbe2d89de7b7","infoHashBuffer":{"type":"Buffer","data":[249,40,43,214,113,72,1,204,76,52,157,180,38,159,219,226,216,157,231,183]},"announce":[],"urlList":[]}}